<?xml version="1.0" standalone="no"?><!DOCTYPE svg PUBLIC "-//W3C//DTD SVG 1.1//EN" "http://www.w3.org/Graphics/SVG/1.1/DTD/svg11.dtd"><svg t="1722565193807" class="icon" viewBox="0 0 1024 1024" version="1.1" xmlns="http://www.w3.org/2000/svg" p-id="7684" xmlns:xlink="http://www.w3.org/1999/xlink" width="200" height="200"><path d="M584.533333 145.066667l85.333334 132.266666c12.8 17.066667 29.866667 29.866667 51.2 34.133334l153.6 42.666666c59.733333 17.066667 81.066667 89.6 42.666666 136.533334l-98.133333 123.733333c-12.8 17.066667-21.333333 38.4-17.066667 59.733333l8.533334 157.866667c4.266667 59.733333-59.733333 106.666667-115.2 85.333333l-149.333334-55.466666c-21.333333-8.533333-42.666667-8.533333-59.733333 0l-149.333333 55.466666c-59.733333 21.333333-119.466667-21.333333-115.2-85.333333l8.533333-157.866667c0-21.333333-4.266667-42.666667-17.066667-59.733333l-98.133333-123.733333c-38.4-46.933333-17.066667-119.466667 42.666667-136.533334l153.6-42.666666c12.8-4.266667 29.866667-17.066667 42.666666-34.133334l85.333334-132.266666c34.133333-51.2 110.933333-51.2 145.066666 0z" fill="#FFD300" p-id="7685"></path></svg>