<svg width="18" height="19" viewBox="0 0 18 19" fill="none" xmlns="http://www.w3.org/2000/svg">
<g id="Frame">
<path id="Vector" d="M3.9375 14C2.5913 14 1.5 12.9087 1.5 11.5625V5.1875C1.5 3.8413 2.5913 2.75 3.9375 2.75H14.0625C15.4087 2.75 16.5 3.8413 16.5 5.1875V11.5625C16.5 12.9087 15.4087 14 14.0625 14H9.75937L5.99901 16.813C5.58439 17.1232 4.99688 17.0384 4.68676 16.6238C4.56552 16.4616 4.5 16.2647 4.5 16.0624L4.49941 14H3.9375ZM9.38513 12.875H14.0625C14.7874 12.875 15.375 12.2874 15.375 11.5625V5.1875C15.375 4.46263 14.7874 3.875 14.0625 3.875H3.9375C3.21263 3.875 2.625 4.46263 2.625 5.1875V11.5625C2.625 12.2874 3.21263 12.875 3.9375 12.875H5.62409L5.62425 13.4373L5.62489 15.688L9.38513 12.875Z" fill="black" fill-opacity="0.7"/>
</g>
</svg>
