<svg width="26" height="26" viewBox="0 0 26 26" fill="none" xmlns="http://www.w3.org/2000/svg">
<g id="1">
<g id="Vector">
<path d="M7.67896 5.68051C9.374 5.68051 10.3435 6.5794 10.6164 7.02884L6.23432 18.7304C5.9454 19.2601 4.91489 20.3195 3.10428 20.3195C1.29367 20.3195 0.744703 19.4206 0.696548 18.9712L5.03046 7.02884C5.20702 6.5794 5.98392 5.68051 7.67896 5.68051Z" fill="black" fill-opacity="0.4"/>
<path d="M15.0948 5.68051C16.7898 5.68051 17.7593 6.5794 18.0322 7.02884L16.4272 11.3146H18.1623L19.7176 7.02884C19.8942 6.5794 20.6711 5.68051 22.3661 5.68051C24.0611 5.68051 25.0306 6.5794 25.3035 7.02884L20.9215 18.7304C20.6325 19.2601 19.602 20.3195 17.7914 20.3195C15.9808 20.3195 15.4318 19.4206 15.3837 18.9712L16.939 14.6854H15.1649L13.6501 18.7304C13.3612 19.2601 12.3307 20.3195 10.5201 20.3195C8.70947 20.3195 8.1605 19.4206 8.11235 18.9712L12.4463 7.02884C12.6228 6.5794 13.3997 5.68051 15.0948 5.68051Z" fill="black" fill-opacity="0.4"/>
</g>
</g>
</svg>
