<svg width="18" height="19" viewBox="0 0 18 19" fill="none" xmlns="http://www.w3.org/2000/svg">
<g id="Heart / undefined / Glyph: undefined">
<path id="Vector" d="M9.61492 4.68434L8.9994 5.30122L8.38192 4.68379C6.80766 3.10948 4.25521 3.10948 2.68091 4.68379C1.10661 6.25808 1.10661 8.81052 2.68091 10.3849L8.60242 16.3063C8.8221 16.526 9.17827 16.526 9.39795 16.3063L15.324 10.3837C16.8948 8.80423 16.8975 6.25893 15.3229 4.68434C13.7458 3.10717 11.1921 3.10717 9.61492 4.68434ZM14.5263 9.59045L9.00015 15.1131L3.47641 9.58933C2.34144 8.45435 2.34144 6.61424 3.47641 5.47928C4.61137 4.34431 6.4515 4.34431 7.58647 5.47928L8.60452 6.49736C8.82795 6.72076 9.19147 6.71641 9.40942 6.48772L10.4104 5.47984C11.5483 4.34201 13.3896 4.34201 14.5274 5.47984C15.6627 6.61507 15.6607 8.44977 14.5263 9.59045Z" fill="black" fill-opacity="0.7"/>
</g>
</svg>
