<svg width="26" height="26" viewBox="0 0 26 26" fill="none" xmlns="http://www.w3.org/2000/svg">
<g id="&#229;&#138;&#160;&#232;&#189;&#189;&#230;&#142;&#167;&#228;&#187;&#182;/icon &#229;&#164;&#167;&#233;&#187;&#145;" clip-path="url(#clip0_41_170)">
<path id="loading-&#229;&#164;&#167;" fill-rule="evenodd" clip-rule="evenodd" d="M26 13C26 20.1797 20.1797 26 13 26C5.8203 26 0 20.1797 0 13C0 5.8203 5.8203 0 13 0C20.1797 0 26 5.8203 26 13ZM23.5 13C23.5 18.799 18.799 23.5 13 23.5C7.20101 23.5 2.5 18.799 2.5 13C2.5 7.20101 7.20101 2.5 13 2.5C18.799 2.5 23.5 7.20101 23.5 13ZM7.5 15.5C8.88071 15.5 10 14.3807 10 13C10 11.6193 8.88071 10.5 7.5 10.5C6.11929 10.5 5 11.6193 5 13C5 14.3807 6.11929 15.5 7.5 15.5Z" fill="black" fill-opacity="0.8"/>
</g>
<defs>
<clipPath id="clip0_41_170">
<rect width="26" height="26" fill="white"/>
</clipPath>
</defs>
</svg>
