<svg width="26" height="26" viewBox="0 0 26 26" fill="none" xmlns="http://www.w3.org/2000/svg">
<g id="5">
<g id="Union">
<path d="M13.221 12.8839C15.7839 12.8839 17.8615 10.8063 17.8615 8.24343C17.8615 5.68058 15.7839 3.60297 13.221 3.60297C10.6582 3.60297 8.58059 5.68058 8.58059 8.24343C8.58059 10.8063 10.6582 12.8839 13.221 12.8839Z" fill="black" fill-opacity="0.4"/>
<path d="M22.0683 16.8725C21.7016 16.5176 21.3634 16.3642 20.6868 16.0576C18.3922 15.0174 15.8694 14.4423 13.2212 14.4423C10.2901 14.4423 7.51263 15.1469 5.02818 16.4067C4.54353 16.6524 4.3012 16.7753 4.01252 17.0345C3.6366 17.372 3.26778 17.9725 3.13679 18.4604C3.03619 18.8351 3.03619 19.1862 3.03619 19.8883C3.03619 20.7665 3.03619 21.2055 3.20709 21.5409C3.35742 21.836 3.59728 22.0758 3.89231 22.2262C4.22772 22.3971 4.66679 22.3971 5.54493 22.3971H20.455C21.3332 22.3971 21.7722 22.3971 22.1076 22.2262C22.4027 22.0758 22.6425 21.836 22.7929 21.5409C22.9638 21.2055 22.9638 20.7665 22.9638 19.8883C22.9638 18.9464 22.9638 18.4754 22.7919 17.995C22.6585 17.6222 22.3528 17.1479 22.0683 16.8725Z" fill="black" fill-opacity="0.4"/>
</g>
</g>
</svg>
