<svg width="70" height="70" viewBox="0 0 70 70" fill="none" xmlns="http://www.w3.org/2000/svg">
<g id="Frame 2">
<rect width="70" height="70" rx="16" fill="white"/>
<rect x="0.18" y="0.18" width="69.64" height="69.64" rx="15.82" stroke="black" stroke-opacity="0.2" stroke-width="0.36"/>
<g id="Group 1">
<rect id="Rectangle 1" x="8.43262" y="15.6157" width="47.5417" height="34.3412" rx="17.1706" fill="#FF1A82"/>
<rect id="Rectangle 2" x="14.1892" y="20.1813" width="47.5417" height="34.3412" rx="17.1706" fill="#00B7FF"/>
<path id="Intersect" fill-rule="evenodd" clip-rule="evenodd" d="M52.0997 21.9207C54.5213 24.8805 55.9741 28.6637 55.9741 32.7863C55.9741 42.2693 48.2866 49.9568 38.8035 49.9568H25.6031C22.8983 49.9568 20.3396 49.3315 18.0637 48.2174C15.6421 45.2576 14.1892 41.4744 14.1892 37.3519C14.1892 27.8688 21.8767 20.1813 31.3598 20.1813H44.5603C47.265 20.1813 49.8237 20.8067 52.0997 21.9207Z" fill="#01008A"/>
<g id="Vector">
<path d="M29.7798 27.7757C31.4688 27.7757 32.4348 28.6714 32.7067 29.1192L28.3403 40.779C28.0524 41.3068 27.0256 42.3625 25.2214 42.3625C23.4173 42.3625 22.8702 41.4668 22.8223 41.0189L27.1407 29.1192C27.3167 28.6714 28.0908 27.7757 29.7798 27.7757Z" fill="white"/>
<path d="M37.1691 27.7757C38.8581 27.7757 39.8242 28.6714 40.0961 29.1192L38.4968 33.3897H40.2257L41.7755 29.1192C41.9514 28.6714 42.7255 27.7757 44.4145 27.7757C46.1035 27.7757 47.0696 28.6714 47.3415 29.1192L42.975 40.779C42.6871 41.3068 41.6603 42.3625 39.8562 42.3625C38.052 42.3625 37.505 41.4668 37.457 41.0189L39.0068 36.7485H37.239L35.7296 40.779C35.4417 41.3068 34.4149 42.3625 32.6108 42.3625C30.8066 42.3625 30.2596 41.4668 30.2116 41.0189L34.5301 29.1192C34.706 28.6714 35.4801 27.7757 37.1691 27.7757Z" fill="white"/>
</g>
</g>
</g>
</svg>
